<svg xmlns="http://www.w3.org/2000/svg" viewBox="0 0 24 24"><defs></defs><title>real-estate-action-house-lock</title><path d="M10.5,19.5H6A1.5,1.5,0,0,1,4.5,18V10.5" style="fill: none; stroke: currentColor; stroke-linecap: round; stroke-linejoin: round; stroke-width: 1.5px;"></path><path d="M1.5,9l8.781-7.43a1.5,1.5,0,0,1,1.938,0l7.3,6.177" style="fill: none; stroke: currentColor; stroke-linecap: round; stroke-linejoin: round; stroke-width: 1.5px;"></path><polyline points="16.5 1.5 19.5 1.5 19.5 4.5" style="fill: none; stroke: currentColor; stroke-linecap: round; stroke-linejoin: round; stroke-width: 1.5px;"></polyline><rect x="13.5" y="15" width="9" height="7.5" rx="1" ry="1" style="fill: none; stroke: currentColor; stroke-linecap: round; stroke-linejoin: round; stroke-width: 1.5px;"></rect><path d="M18,10.5h0a3,3,0,0,0-3,3V15h6V13.5A3,3,0,0,0,18,10.5Z" style="fill: none; stroke: currentColor; stroke-linecap: round; stroke-linejoin: round; stroke-width: 1.5px;"></path><path d="M18,18.4a.375.375,0,1,1-.375.375A.375.375,0,0,1,18,18.4" style="fill: none; stroke: currentColor; stroke-linecap: round; stroke-linejoin: round; stroke-width: 1.5px;"></path></svg>