<svg xmlns="http://www.w3.org/2000/svg" viewBox="0 0 24 24"><defs></defs><title>single-man-actions-chat</title><path d="M3.945,2.781a6.848,6.848,0,0,0,4.93,2.094,6.847,6.847,0,0,0,2.712-.558" style="fill: none; stroke: currentColor; stroke-linecap: round; stroke-linejoin: round; stroke-width: 1.5px;"></path><circle cx="7.5" cy="4.875" r="4.125" style="fill: none; stroke: currentColor; stroke-linecap: round; stroke-linejoin: round; stroke-width: 1.5px;"></circle><path d="M8.25,10.558A6.409,6.409,0,0,0,7.5,10.5,6.75,6.75,0,0,0,.75,17.25" style="fill: none; stroke: currentColor; stroke-linecap: round; stroke-linejoin: round; stroke-width: 1.5px;"></path><path d="M21.75,20.25h-3l-4.5,3v-3h-1.5a1.5,1.5,0,0,1-1.5-1.5v-6a1.5,1.5,0,0,1,1.5-1.5h9a1.5,1.5,0,0,1,1.5,1.5v6A1.5,1.5,0,0,1,21.75,20.25Z" style="fill: none; stroke: currentColor; stroke-linecap: round; stroke-linejoin: round; stroke-width: 1.5px;"></path><line x1="14.25" y1="14.25" x2="20.25" y2="14.25" style="fill: none; stroke: currentColor; stroke-linecap: round; stroke-linejoin: round; stroke-width: 1.5px;"></line><line x1="14.25" y1="17.25" x2="20.25" y2="17.25" style="fill: none; stroke: currentColor; stroke-linecap: round; stroke-linejoin: round; stroke-width: 1.5px;"></line></svg>